<?xml version="1.0" standalone="no"?>
<!DOCTYPE svg PUBLIC "-//W3C//DTD SVG 20010904//EN"
 "http://www.w3.org/TR/2001/REC-SVG-20010904/DTD/svg10.dtd">
<svg version="1.0" xmlns="http://www.w3.org/2000/svg"
 width="75.000000pt" height="75.000000pt" viewBox="0 0 75.000000 75.000000"
 preserveAspectRatio="xMidYMid meet">
<metadata>
Created by potrace 1.14, written by Peter Selinger 2001-2017
</metadata>
<g transform="translate(0.000000,75.000000) scale(0.100000,-0.100000)"
fill="#000000" stroke="none">
<path d="M284 617 c-27 -13 -67 -44 -87 -68 -33 -38 -67 -118 -67 -157 0 -8
-25 -39 -55 -68 -42 -42 -55 -61 -55 -84 0 -17 5 -30 11 -30 5 0 8 -4 5 -9 -4
-5 3 -7 14 -4 12 3 20 0 20 -6 0 -7 5 -9 13 -4 13 8 23 10 79 16 21 2 41 7 45
10 11 12 35 8 27 -5 -4 -7 -3 -8 5 -4 6 4 9 11 6 16 -3 4 4 10 15 13 10 3 21
0 24 -7 2 -6 5 -3 5 8 1 11 6 16 15 13 8 -3 16 -3 18 1 2 4 25 17 51 30 29 13
46 17 42 10 -4 -7 -1 -6 7 3 13 16 75 52 81 47 2 -2 11 5 21 15 19 19 36 22
36 7 0 -17 -195 -139 -209 -131 -2 2 -8 -4 -13 -13 -5 -9 -12 -15 -16 -12 -4
2 -8 -11 -9 -28 -3 -39 24 -58 84 -60 26 -1 37 -5 35 -14 -1 -8 2 -11 8 -7 6
3 8 11 5 16 -4 5 2 12 12 15 51 16 94 39 114 60 12 13 27 21 33 17 6 -3 8 -3
4 1 -3 4 4 29 17 55 24 47 37 125 28 161 -5 17 -10 14 -43 -21 -23 -25 -40
-36 -44 -30 -9 14 1 31 20 31 8 0 14 3 14 8 0 4 14 16 30 27 16 11 30 26 30
33 0 6 4 12 9 12 5 0 14 13 19 29 15 44 -3 62 -63 64 -36 2 -65 11 -100 32
-70 42 -167 47 -241 12z"/>
</g>
</svg>
